/* XPM */
static char *bitcoin__[] = {
/* columns rows colors chars-per-pixel */
"32 32 256 2 ",
"   c #E68D22",
".  c #E78D23",
"X  c #E88E23",
"o  c #E98F23",
"O  c #EB9023",
"+  c #ED9123",
"@  c #EA9024",
"#  c #EA9025",
"$  c #E99026",
"%  c #E89027",
"&  c #ED9124",
"*  c #EF9324",
"=  c #ED9226",
"-  c #ED9327",
";  c #E89128",
":  c #EA9228",
">  c #ED9328",
",  c #F09324",
"<  c #F19424",
"1  c #F39524",
"2  c #F19426",
"3  c #F09527",
"4  c #F19527",
"5  c #F49524",
"6  c #F49624",
"7  c #F59624",
"8  c #F49625",
"9  c #F59625",
"0  c #F69625",
"q  c #F69725",
"w  c #F79725",
"e  c #F49626",
"r  c #F49726",
"t  c #F59726",
"y  c #F59727",
"u  c #F69726",
"i  c #F79825",
"p  c #F79826",
"a  c #F89825",
"s  c #F89826",
"d  c #F89926",
"f  c #F89927",
"g  c #F89928",
"h  c #F89A28",
"j  c #F89A29",
"k  c #F99A29",
"l  c #F89A2A",
"z  c #F89B2A",
"x  c #F89B2B",
"c  c #F99B2B",
"v  c #F89B2C",
"b  c #F99B2C",
"n  c #F89B2D",
"m  c #F89C2C",
"M  c #F89C2D",
"N  c #F99C2D",
"B  c #F89C2E",
"V  c #F99C2E",
"C  c #F89D2F",
"Z  c #F99D2F",
"A  c #F79E33",
"S  c #F89D30",
"D  c #F99D30",
"F  c #F99D31",
"G  c #F89E31",
"H  c #F99E31",
"J  c #F89E32",
"K  c #F99E32",
"L  c #F89E33",
"P  c #F99E33",
"I  c #F99F33",
"U  c #F99F34",
"Y  c #F9A035",
"T  c #F9A036",
"R  c #F9A137",
"E  c #F5A039",
"W  c #F7A038",
"Q  c #F7A33E",
"!  c #F6A33F",
"~  c #F9A138",
"^  c #F9A139",
"/  c #F9A239",
"(  c #FAA239",
")  c #F9A23A",
"_  c #F9A33C",
"`  c #F9A43E",
"'  c #F9A43F",
"]  c #F9A53F",
"[  c #FAA53F",
"{  c #F4A341",
"}  c #F5A443",
"|  c #F6A442",
" . c #F3A445",
".. c #F6A544",
"X. c #F7A544",
"o. c #F5A546",
"O. c #F8A541",
"+. c #FAA540",
"@. c #FAA541",
"#. c #F9A642",
"$. c #F9A643",
"%. c #FAA745",
"&. c #F9A746",
"*. c #FAA847",
"=. c #F3A84E",
"-. c #F5A94F",
";. c #F5AA4F",
":. c #F7AA4F",
">. c #FAA948",
",. c #FAA949",
"<. c #FBAC4E",
"1. c #F4AA51",
"2. c #F5AA51",
"3. c #F6AC52",
"4. c #F5AC56",
"5. c #F9AC51",
"6. c #F9AE55",
"7. c #FBAF55",
"8. c #F9AF56",
"9. c #FBAF56",
"0. c #F6AF5B",
"q. c #F3AF5D",
"w. c #FBB056",
"e. c #FBB057",
"r. c #F5B05D",
"t. c #F7B05C",
"y. c #F4B05F",
"u. c #F7B15E",
"i. c #FBB159",
"p. c #F8B05B",
"a. c #FAB25C",
"s. c #F4B161",
"d. c #F5B363",
"f. c #F1B267",
"g. c #F2B266",
"h. c #F7B567",
"j. c #F8B360",
"k. c #F7B76A",
"l. c #F4B66D",
"z. c #F7B96F",
"x. c #F3B973",
"c. c #F4B870",
"v. c #F4B971",
"b. c #F3BA77",
"n. c #F6BB75",
"m. c #F4BB77",
"M. c #F6BC77",
"N. c #F0B978",
"B. c #F4BC7A",
"V. c #F4BD7B",
"C. c #F1BC7E",
"Z. c #F5BE7D",
"A. c #F1BF83",
"S. c #EFC38E",
"D. c #F4C082",
"F. c #F5C183",
"G. c #F2C085",
"H. c #F4C285",
"J. c #F4C48A",
"K. c #F3C58E",
"L. c #EFCA9E",
"P. c #F3C691",
"I. c #F3C792",
"U. c #F2C895",
"Y. c #F3C997",
"T. c #F4C995",
"R. c #F6C994",
"E. c #F5CA98",
"W. c #F5CB9A",
"Q. c #F4CD9F",
"!. c #F3CDA0",
"~. c #F1CDA3",
"^. c #F3CFA3",
"/. c #F4D0A5",
"(. c #F4D1A6",
"). c #F3D2AA",
"_. c #F4D3AB",
"`. c #F5D3AB",
"'. c #F4D4AE",
"]. c #EFD6B7",
"[. c #EFD6B8",
"{. c #F3D5B2",
"}. c #F0D6B7",
"|. c #F4D8B7",
" X c #F5D9B7",
".X c #F5D9B8",
"XX c #F4DABA",
"oX c #F3DBBD",
"OX c #F6DEC1",
"+X c #F2DDC5",
"@X c #F5DFC5",
"#X c #F5E0C8",
"$X c #F6E2CA",
"%X c #F4E2CC",
"&X c #F5E3CE",
"*X c #F3E4D1",
"=X c #F6E5D1",
"-X c #F0E4D5",
";X c #F7E7D4",
":X c #F5E8D7",
">X c #F6E8D7",
",X c #F5E8D9",
"<X c #F5E9DB",
"1X c #F5EADD",
"2X c #F5EBDF",
"3X c #F6EBDE",
"4X c #F6ECDF",
"5X c #F7EDE1",
"6X c #F5EDE3",
"7X c #F2ECE4",
"8X c #F6EEE4",
"9X c #F7EEE4",
"0X c #F6EFE5",
"qX c #F8EDE0",
"wX c #F9F0E7",
"eX c #F7F1EB",
"rX c #F6F1EC",
"tX c #F5F2EE",
"yX c #F7F3EE",
"uX c #F8F1E8",
"iX c #F9F3EC",
"pX c #F7F5F3",
"aX c #F7F6F4",
"sX c #F5F6F6",
"dX c #F9F5F0",
"fX c #FAF5F0",
"gX c #F8F5F2",
"hX c #F9F6F2",
"jX c #FAF6F2",
"kX c #F8F7F5",
"lX c #FBF8F5",
"zX c #F9F8F6",
"xX c #F9F8F7",
"cX c #FAF9F7",
"vX c #FAFAF9",
"bX c #FBFAF9",
"nX c #FAFAFA",
"mX c #FBFBFB",
"MX c #FCFBF9",
"NX c #FCFBFA",
"BX c #FCFCFB",
"VX c #F9FBFC",
"CX c #FBFBFC",
"ZX c #FBFCFC",
"AX c #FBFCFD",
"SX c #FCFCFC",
"DX c #FCFCFD",
"FX c #FEFEFD",
"GX c #FCFDFE",
"HX c #FDFDFE",
"JX c #FDFEFE",
"KX c #FDFEFF",
"LX c #FEFEFF",
"PX c #FEFFFF",
"IX c #FFFFFF",
"UX c None",
/* pixels */
"UXUXUXUXUXUXUXUXUXUXUXUXUXUXUXUXUXUXUXUXUXUXUXUXUXUXUXUXUXUXUXUX",
"UXUXUXUXUXUXUXUXUXUXUXUXUXUXUXUXUXUXUXUXUXUXUXUXUXUXUXUXUXUXUXUX",
"UXUXUXUXUXUXUXUXUXUXUX; 4 r u p p u e 3 % UXUXUXUXUXUXUXUXUXUXUX",
"UXUXUXUXUXUXUXUXUX> t a a a a a a a s f s t = UXUXUXUXUXUXUXUXUX",
"UXUXUXUXUXUXUXUXy a a a a a a a s f j z f a a e UXUXUXUXUXUXUXUX",
"UXUXUXUXUXUX: p a a a a a a s a g c B B l s a a i # UXUXUXUXUXUX",
"UXUXUXUXUX: p a a a a a s f j  .} G H D v g a a a i @ UXUXUXUXUX",
"UXUXUXUXUXp a a a a a a s k A }.[...N.q.C l d a a a w UXUXUXUXUX",
"UXUXUXUXy a a a a d f =.g.o.1.6X_.4.7X~.G m g a a a a 8 UXUXUXUX",
"UXUXUX- a a a d g l v L.sX3X=XvX`.K.pXZ.H C z d a a a a & UXUXUX",
"UXUXUXt a s g l m C L y./.lXIXPXnXcXNX^.2.G m h a a a a 9 UXUXUX",
"UXUX$ s f l v C K Y ^ ( 3.5XIXwX X>XcXDX<Xx.S z d a a a a X UXUX",
"UXUX2 d l B G Y ~ _ ] @.c.hXPXXX8.j.T.fXIX2X;.c h s a a a , UXUX",
"UXUXe s h M P ~ ` #.*.>.Y.GXSXE.e.7.6.&XIXxXl.N x f a a a 6 UXUX",
"UXUXq a d z Z Y _ $.,.5.oXPXMX(.n.k.H.uXIXeXr.H B j s a a 0 UXUX",
"UXUXw a a g m K ~ ' %.t.1XIXBXaXrX0XhXLXjX!.O.T F x f a a q UXUX",
"UXUXw a a d l C Y _ +.v.hXPX$XR..X9XJXPX&X0.[ ) U B j s a q UXUX",
"UXUXq a a a g v K T / P.GXDXW.i.a.z.@XLXZX).&.` R F c f a 0 UXUX",
"UXUX8 a a a s l C f.b.#XPXdXM.w.9.<.F.vXIX,X:._ ~ I B k s 5 UXUX",
"UXUX< a a a a d { -XVXJXIXiXJ.h.p.u.'.HXIX%XX.T I D M l f * UXUX",
"UXUXo a a a a a E G.|.qXFXKXzX8X:X4XMXIXAXI.P F B x h f a . UXUX",
"UXUXUX9 a a a a d k J V.kXOX;XKXbXmXCXgX{.| M x j f s a 7 UXUXUX",
"UXUXUX+ a a a a s j b U.tXd.Q.yXD.m.B.s.W z j f s a a a O UXUXUX",
"UXUXUXUX6 a a a a f v S.].-.+X*XQ V b k j f s a a a a 5 UXUXUXUX",
"UXUXUXUXUXw a a a s j J ! Q A.C.S v l f s a a a a a w UXUXUXUXUX",
"UXUXUXUXUXo i a a a f z Z K B n l g d a a a a a a w X UXUXUXUXUX",
"UXUXUXUXUXUXo w a a s h M M z g d a a a a a a a w X UXUXUXUXUXUX",
"UXUXUXUXUXUXUXUX6 a a f l h d a a a a a a a a 5 UXUXUXUXUXUXUXUX",
"UXUXUXUXUXUXUXUXUXO 7 a d s a a a a a a a 7 O UXUXUXUXUXUXUXUXUX",
"UXUXUXUXUXUXUXUXUXUXUX  * 1 0 q q 0 1 *   UXUXUXUXUXUXUXUXUXUXUX",
"UXUXUXUXUXUXUXUXUXUXUXUXUXUXUXUXUXUXUXUXUXUXUXUXUXUXUXUXUXUXUXUX",
"UXUXUXUXUXUXUXUXUXUXUXUXUXUXUXUXUXUXUXUXUXUXUXUXUXUXUXUXUXUXUXUX"
};
