/* XPM */
static char *bitcoin__[] = {
/* columns rows colors chars-per-pixel */
"16 16 96 2 ",
"   c #ED9223",
".  c #EE9223",
"X  c #EE9224",
"o  c #EF9324",
"O  c #EF9325",
"+  c #EF9426",
"@  c #EF9427",
"#  c #F19324",
"$  c #F19424",
"%  c #F29424",
"&  c #F29526",
"*  c #F59624",
"=  c #F59625",
"-  c #F69725",
";  c #F79725",
":  c #F59726",
">  c #F69726",
",  c #F89723",
"<  c #F79825",
"1  c #F89825",
"2  c #F89826",
"3  c #F89926",
"4  c #F89927",
"5  c #F89928",
"6  c #F89A29",
"7  c #F89A2A",
"8  c #F99A2A",
"9  c #F99B2A",
"0  c #F89B2B",
"q  c #F89C2D",
"w  c #F89C2E",
"e  c #F89D30",
"r  c #F99D30",
"t  c #F99E31",
"y  c #F89E32",
"u  c #F99E32",
"i  c #F89E33",
"p  c #F99F33",
"a  c #F99F34",
"s  c #F7A33F",
"d  c #F9A33D",
"f  c #F7A746",
"g  c #F8A643",
"h  c #F9A745",
"j  c #F6A749",
"k  c #F7A94A",
"l  c #F6A94E",
"z  c #F7AA4F",
"x  c #F8A94A",
"c  c #F5AA51",
"v  c #F5AC55",
"b  c #F7AD55",
"n  c #F5AC56",
"m  c #F8AF57",
"M  c #F5B05E",
"N  c #F4B160",
"B  c #F4B467",
"V  c #F8B463",
"C  c #F8B564",
"Z  c #F7B76B",
"A  c #F7BA71",
"S  c #F6BD79",
"D  c #F7C282",
"F  c #F3C997",
"G  c #F5CA96",
"H  c #F7CD9B",
"J  c #F7CF9F",
"K  c #F8CE9D",
"L  c #F4D0A6",
"P  c #F8D0A0",
"I  c #F6D4AB",
"U  c #F5D4AC",
"Y  c #F4D7B5",
"T  c #F7DAB7",
"R  c #F8D8B2",
"E  c #F7DBBA",
"W  c #F7DCBD",
"Q  c #F8DBB9",
"!  c #F7E4CD",
"~  c #F9E5CD",
"^  c #F9E7D1",
"/  c #F9E7D3",
"(  c #F9E9D5",
")  c #F8E9D6",
"_  c #F8EBDA",
"`  c #F8ECDC",
"'  c #F9EDDF",
"]  c #FAEDDE",
"[  c #F9F0E4",
"{  c #FAF2E9",
"}  c #FAF3EB",
"|  c #FBF4EB",
" . c #FAF4ED",
".. c #FBF6F0",
"X. c #FCF9F6",
"o. c None",
/* pixels */
"o.o.o.o.o.o.o.o.o.o.o.o.o.o.o.o.",
"o.o.o.o.o.& : > > : & o.o.o.o.o.",
"o.o.o.@ > 1 1 1 4 9 4 - O o.o.o.",
"o.o.+ < 1 2 1 n N l q 1 < o o.o.",
"o.o.> 2 2 c G W U L i 4 1 - o.o.",
"o.& 4 0 r f E X.) _ S w 2 1 % o.",
"o.: 0 a d h Q ^ C R { z 3 1 = o.",
"o.- 5 t d m ] ' I ( / k 0 2 - o.",
"o.- 2 0 a Z  .P K | T g u 6 - o.",
"o.= 1 2 B ! ..D V ~ ] x p 0 = o.",
"o.% 1 1 j J [ ` _ } H y 7 4 $ o.",
"o.o.- 1 , M F Y A b y 3 1 - o.o.",
"o.o.X < 1 e s v q 1 1 1 ; . o.o.",
"o.o.o.. - 3 8 3 1 1 1 -   o.o.o.",
"o.o.o.o.o.$ = - - * # o.o.o.o.o.",
"o.o.o.o.o.o.o.o.o.o.o.o.o.o.o.o."
};
