/* XPM */
static char *bitcoin16[] = {
/* columns rows colors chars-per-pixel */
"16 16 143 2 ",
"   c #4A67FF",
".  c #4A68FF",
"X  c #4A69FF",
"o  c #4A6AFF",
"O  c #4A6BFF",
"+  c #496DFF",
"@  c #4A6CFF",
"#  c #4A6EFF",
"$  c #4A6FFF",
"%  c #4A70FF",
"&  c #4A71FF",
"*  c #4A72FF",
"=  c #4A73FF",
"-  c #4874FF",
";  c #4875FF",
":  c #4A76FF",
">  c #457BFF",
",  c #4A79FF",
"<  c #4A7BFF",
"1  c #4A7CFF",
"2  c #487FFF",
"3  c #4A7EFF",
"4  c #507BFF",
"5  c #547BFF",
"6  c #4A81FF",
"7  c #4983FF",
"8  c #4A84FF",
"9  c #4A86FF",
"0  c #4A87FF",
"q  c #4989FF",
"w  c #4A89FF",
"e  c #488DFF",
"r  c #4A8CFF",
"t  c #4A8EFF",
"y  c #4A8FFF",
"u  c #5085FF",
"i  c #4A91FF",
"p  c #4893FF",
"a  c #4993FF",
"s  c #4A94FF",
"d  c #4896FF",
"f  c #4A97FF",
"g  c #4899FF",
"h  c #4A99FF",
"j  c #4A9CFF",
"k  c #4B9DFF",
"l  c #4A9FFF",
"z  c #5490FF",
"x  c #5492FF",
"c  c #5992FF",
"v  c #5D9DFF",
"b  c #618BFF",
"n  c #789AFF",
"m  c #789FFF",
"M  c #47A5FF",
"N  c #49A1FF",
"B  c #4AA1FF",
"V  c #48A3FF",
"C  c #4AA4FF",
"Z  c #49A7FF",
"A  c #4AA7FF",
"S  c #49A9FF",
"D  c #4AA9FF",
"F  c #48ABFF",
"G  c #4AAAFF",
"H  c #4BAAFF",
"J  c #4AACFF",
"K  c #4AADFF",
"L  c #48AEFF",
"P  c #4AAFFF",
"I  c #5BA1FF",
"U  c #58A6FF",
"Y  c #59ACFF",
"T  c #49B1FF",
"R  c #49B2FF",
"E  c #4AB2FF",
"W  c #4AB3FF",
"Q  c #4AB5FF",
"!  c #4AB7FF",
"~  c #4ABAFF",
"^  c #4ABBFF",
"/  c #4ABCFF",
"(  c #4ABDFF",
")  c #4ABEFF",
"_  c #4ABFFF",
"`  c #5BB5FF",
"'  c #73A1FF",
"]  c #61B0FF",
"[  c #60B5FF",
"{  c #6CB1FF",
"}  c #67BAFF",
"|  c #7EB5FF",
" . c #4AC0FF",
".. c #93B1FF",
"X. c #97B7FF",
"o. c #96BDFF",
"O. c #97BEFF",
"+. c #A5BCFF",
"@. c #A7BEFF",
"#. c #82C3FF",
"$. c #86C1FF",
"%. c #8AC7FF",
"&. c #99CBFF",
"*. c #9CCFFF",
"=. c #9ECEFF",
"-. c #AAC5FF",
";. c #A2CCFF",
":. c #B0C7FF",
">. c #B0CEFF",
",. c #B8CEFF",
"<. c #A2D4FF",
"1. c #AEDAFF",
"2. c #BBD4FF",
"3. c #BEDAFF",
"4. c #C6D3FF",
"5. c #C7DBFF",
"6. c #D1DBFF",
"7. c #CDE0FF",
"8. c #CCE4FF",
"9. c #CFE5FF",
"0. c #CEE8FF",
"q. c #D9E5FF",
"w. c #DAE6FF",
"e. c #D4EAFF",
"r. c #DBEAFF",
"t. c #DFEEFF",
"y. c #E0E6FF",
"u. c #E2EAFF",
"i. c #E2EDFF",
"p. c #E9ECFF",
"a. c #E5F3FF",
"s. c #EBF4FF",
"d. c #EBF7FF",
"f. c #EDF5FF",
"g. c #EFF5FF",
"h. c #EFF7FF",
"j. c #F4F7FF",
"k. c #F1F8FF",
"l. c #F6F9FF",
"z. c #F8FAFF",
"x. c #FEFFFF",
"c. c white",
"v. c None",
/* pixels */
"v.v.v.v.v.h l C D P W v.v.v.v.v.",
"v.v.v.r i f j N Z K E ! ^ v.v.v.",
"v.v.8 w y a g U Y H P Q ~ ) v.v.",
"v.1 6 9 r v I ;.&.*.` R ! (  .v.",
"v., 3 8 q O.r.s.8.e.[ L Q ~ _ v.",
"* : < 6 9 x 7.g.3.a.0.} T ! (  .",
"$ = , 3 7 c i.4.r %.x.<.L Q ~ _ ",
"@ & : < 2 ' l.y.:.9.k.#.F E ! / ",
"X # = , > X.z.o.=.d.t.] S P Q ~ ",
". O % 4 ..w.p.b d 1.c.$.M K E ! ",
"  X + 5 +.u.j.6.5.h.f.{ V G P W ",
"v.  O % - @.,.q.2.>.| k B A J v.",
"v.  X # = n m -.z e p h l C D v.",
"v.v.. O & ; 1 u 0 r i f j B v.v.",
"v.v.v.o # = , 3 8 w t s h v.v.v.",
"v.v.v.v.v.* : 1 6 0 r v.v.v.v.v."
};
