/* XPM */
static char *bitcoin__[] = {
/* columns rows colors chars-per-pixel */
"64 64 98 2 ",
"   c #DC8721",
".  c #DF8A24",
"X  c #DE8D2C",
"o  c #E38B22",
"O  c #E88E23",
"+  c #E28E29",
"@  c #ED9124",
"#  c #E5912B",
"$  c #ED942A",
"%  c #F49625",
"&  c #F79826",
"*  c #F89825",
"=  c #F39729",
"-  c #F69829",
";  c #F89B2B",
":  c #F69D33",
">  c #F99E32",
",  c #F7A037",
"<  c #F9A036",
"1  c #F6A23D",
"2  c #F9A23B",
"3  c #F6A442",
"4  c #F9A642",
"5  c #FAA846",
"6  c #F6A84C",
"7  c #FAAB4C",
"8  c #EFA955",
"9  c #EEAB5B",
"0  c #F4AB54",
"q  c #FAAE53",
"w  c #F3AE5B",
"e  c #FAB057",
"r  c #F5B15F",
"t  c #FBB25B",
"y  c #EDB066",
"u  c #EDB26C",
"i  c #F5B363",
"p  c #F9B564",
"a  c #F4B56B",
"s  c #EEB674",
"d  c #EFB876",
"f  c #EBB778",
"g  c #EDB97B",
"h  c #F2B770",
"j  c #F4BA75",
"k  c #F2BC7B",
"l  c #F0BE82",
"z  c #EFC28D",
"x  c #F2C085",
"c  c #F2C38B",
"v  c #EEC697",
"b  c #E4C49D",
"n  c #EBC69A",
"m  c #EEC89C",
"M  c #F1C694",
"N  c #F2C896",
"B  c #F0C99A",
"V  c #E5C6A0",
"C  c #E6C8A4",
"Z  c #EDCBA3",
"A  c #ECCEAB",
"S  c #F2CDA1",
"D  c #EFD2AF",
"F  c #F2D0A7",
"G  c #F0D1AB",
"H  c #EDD3B5",
"J  c #E5D4BE",
"K  c #EBD5BB",
"L  c #EDD8BE",
"P  c #F1D5B4",
"I  c #F3DBBF",
"U  c #E9D7C1",
"Y  c #EDDAC4",
"T  c #EDDECC",
"R  c #F1DBC2",
"E  c #F0DFCB",
"W  c #ECDFD1",
"Q  c #F0E1CF",
"!  c #EEE2D5",
"~  c #EEE6DC",
"^  c #EFE8DF",
"/  c #F2E3D1",
"(  c #F1E7DC",
")  c #F0E8DD",
"_  c #EBE6E0",
"`  c #EEE9E4",
"'  c #ECEDEE",
"]  c #F2ECE4",
"[  c #F1EEEB",
"{  c #F3F1EE",
"}  c #EDEFF1",
"|  c #F4F4F4",
" . c #F8F6F3",
".. c #F9F8F7",
"X. c #F6F7F9",
"o. c #F7F8FA",
"O. c #FDFDFE",
"+. c None",
/* pixels */
"+.+.+.+.+.+.+.+.+.+.+.+.+.+.+.+.+.+.+.+.+.+.+.+.+.+.+.+.+.+.+.+.+.+.+.+.+.+.+.+.+.+.+.+.+.+.+.+.+.+.+.+.+.+.+.+.+.+.+.+.+.+.+.+.",
"+.+.+.+.+.+.+.+.+.+.+.+.+.+.+.+.+.+.+.+.+.+.+.+.+.+.+.+.+.+.+.+.+.+.+.+.+.+.+.+.+.+.+.+.+.+.+.+.+.+.+.+.+.+.+.+.+.+.+.+.+.+.+.+.",
"+.+.+.+.+.+.+.+.+.+.+.+.+.+.+.+.+.+.+.+.+.+.+.+.+.+.+.+.+.+.+.+.+.+.+.+.+.+.+.+.+.+.+.+.+.+.+.+.+.+.+.+.+.+.+.+.+.+.+.+.+.+.+.+.",
"+.+.+.+.+.+.+.+.+.+.+.+.+.+.+.+.+.+.+.+.+.+.+.+.+.+.+.+.+.+.+.+.+.+.+.+.+.+.+.+.+.+.+.+.+.+.+.+.+.+.+.+.+.+.+.+.+.+.+.+.+.+.+.+.",
"+.+.+.+.+.+.+.+.+.+.+.+.+.+.+.+.+.+.+.+.+.+.+.+.X $ = & & & * * * * * * - = $ +.+.+.+.+.+.+.+.+.+.+.+.+.+.+.+.+.+.+.+.+.+.+.+.+.",
"+.+.+.+.+.+.+.+.+.+.+.+.+.+.+.+.+.+.+.+.+.+.$ * - * * * * & * * * * * * * * * & & $ +.+.+.+.+.+.+.+.+.+.+.+.+.+.+.+.+.+.+.+.+.+.",
"+.+.+.+.+.+.+.+.+.+.+.+.+.+.+.+.+.+.+.# - * * * * * * * * * * * * * ; * & & * * * * * = + +.+.+.+.+.+.+.+.+.+.+.+.+.+.+.+.+.+.+.",
"+.+.+.+.+.+.+.+.+.+.+.+.+.+.+.+.+.X = * * * * * * * * * * * * * * * ; & & & & & * * * * & & o +.+.+.+.+.+.+.+.+.+.+.+.+.+.+.+.+.",
"+.+.+.+.+.+.+.+.+.+.+.+.+.+.+.+.% * * * * * * * * * * * * ; & & * * * * & & ; ; & & & & * * * % +.+.+.+.+.+.+.+.+.+.+.+.+.+.+.+.",
"+.+.+.+.+.+.+.+.+.+.+.+.+.+.+.- * * * * * * * * * * * * * ; & & * * & & ; ; ; ; ; & * ; * * * * & +.+.+.+.+.+.+.+.+.+.+.+.+.+.+.",
"+.+.+.+.+.+.+.+.+.+.+.+.+.# & * * * * * * * * * * * * * * * & & ; ; ; ; ; ; > ; ; ; * * * * * * & & + +.+.+.+.+.+.+.+.+.+.+.+.+.",
"+.+.+.+.+.+.+.+.+.+.+.+.$ * * * * * * * * * * * * * * * * * & ; ; ; ; ; > ; > ; ; ; & * * * * * * * & @ +.+.+.+.+.+.+.+.+.+.+.+.",
"+.+.+.+.+.+.+.+.+.+.+.$ - * * * * * * * * * * * * * * * & ; & & ; ; ; > > < > > ; ; * * * * * * * * * * @ +.+.+.+.+.+.+.+.+.+.+.",
"+.+.+.+.+.+.+.+.+.+.# * * * * * * * * * * * * * * * * * ; & 3 u 0 , > > > < < ; ; ; ; ; * * * * * * * * * o +.+.+.+.+.+.+.+.+.+.",
"+.+.+.+.+.+.+.+.+.+.& * * * * * * * * * * * * * & * ; ; - ; g ' ^ V 1 < 3 3 : : > ; ; ; * * * * * * * * * & +.+.+.+.+.+.+.+.+.+.",
"+.+.+.+.+.+.+.+.+.- * * * * * * * * * * * * ; ; ; * ; ; ; : A X.X.Z , 1 V Y C w ; < ; ; * * * * * * * * * * & +.+.+.+.+.+.+.+.+.",
"+.+.+.+.+.+.+.+.= * * * * * * * * * * * * * & > ; & ; ; > 3 T O.| l < 6 ! X.' d < ; > ; ; * * * * * * * * * * @ +.+.+.+.+.+.+.+.",
"+.+.+.+.+.+.+.+ * * * * * * * * * * ; & ; ; : b C g w 1 : r [ O.] i , a [ O.] w < < ; ; ; ; & * * * * * * * * * o +.+.+.+.+.+.+.",
"+.+.+.+.+.+.+.= * * * * * * * * * & ; ; ; - 0 ^ X.| ] T Z P o.O.Q 6 2 v | O.Y 5 < ; ; ; ; * & * * * * * * * % * = +.+.+.+.+.+.+.",
"+.+.+.+.+.+.# * * * * * * * * * * & ; ; ; ; s ' O.O.O.O.O.o.O.O.] m k R o.X.S 2 < < < ; ; ; ; & * * * * * * * * * o +.+.+.+.+.+.",
"+.+.+.+.+.+.= * * * * ; ; & & ; ; ; ; ; > > 9 Z T { O.O.O.O.O.O.O.o.| ..O.o.N 2 < < > > ; ; & & * * * * * * * * * = +.+.+.+.+.+.",
"+.+.+.+.+.+.* * * * * & * ; ; ; ; ; < > > < < , 5 l [ O.O.O.O.O.O.O.O.O.O.O.] K j 4 > > > ; ; & * * * * * * * * * * +.+.+.+.+.+.",
"+.+.+.+.+.$ * * * * ; ; ; ; ; > > > < < , , , 2 2 7 / O.O.O.O. .] | o.O.O.O.O.o.' H 0 > > ; ; ; * * * * * * * * * * @ +.+.+.+.+.",
"+.+.+.+.+.& * * * ; ; ; ; ; ; ; > < < < 2 2 2 4 2 w ^ O.O.O.O.R j c H / | O.O.O.O.X.! w > > ; & * * * * * * * * * * & +.+.+.+.+.",
"+.+.+.+.+.& * & ; ; > ; ; > < < < < 2 2 2 2 4 4 4 j | O.O.O.X.B 7 e e t N ) O.O.O.O.o.Y 3 ; ; ; ; & * * * * * * * * * +.+.+.+.+.",
"+.+.+.+.@ * * & & ; ; > > < < < , 2 2 2 4 4 5 5 5 m X.O.O.O.[ k q e e q 7 j ] O.O.O.O.| j > > ; ; & * * * * * * * * * O +.+.+.+.",
"+.+.+.+.= & * * ; ; ; > < < < 2 2 2 4 4 4 5 5 7 7 Y o.O.O.O.~ p e t e e q 7 D o.O.O.O.X.v > > ; ; & * * * * * * * * * @ +.+.+.+.",
"+.+.+.+.& * * * & & ; ; ; < < 2 2 4 4 5 5 5 7 7 i ) O.O.O.o.L t t t t e q q S o.O.O.O.X.n > > > > ; * * * * * * * * * * +.+.+.+.",
"+.+.+.+.* * * * & ; ; ; ; < < < 2 4 4 5 7 7 q 7 l { O.O.O.o.S t t t t e q t T O.O.O.O.| l < < > ; ; & & * * * * * * * & +.+.+.+.",
"+.+.+.+.* * * * * * ; ; ; ; ; < 2 2 2 5 5 7 7 7 Z X.O.O.O.O./ Z x j a a k K | O.O.O.O.` r < < > > ; ; ; * * * * * * * * +.+.+.+.",
"+.+.+.+.* * * * * * & ; ; ; < < 2 2 2 5 5 5 7 q U o.O.O.O.O.O...{ ] ( ^ { o.O.O.O.O.| Z 4 , < < > > ; ; * * * * * * * * +.+.+.+.",
"+.+.+.+.* * * * * * & ; ; > > < < < 2 4 4 5 7 p ~ O.O.O.O.O.o.o.O.O.O.O.O.O.O.O.o.[ A q 4 2 , < > > ; ; * * * * * * * * +.+.+.+.",
"+.+.+.+.* * * * * * & & ; ; ; < < , 2 2 4 5 5 k | O.O.O...I G E ] | o.O.O.O.O.O.] c 7 4 4 2 2 < < > ; ; ; * * * * * * * +.+.+.+.",
"+.+.+.+.* * * * * * ; * & ; ; > < < 2 2 2 4 5 n | O.O.O.{ x t p j N Y { O.O.O.O...T a 5 4 4 2 2 < < < ; ; ; & * * * * * +.+.+.+.",
"+.+.+.+.* * * * * * * * & ; ; ; ; < < 2 4 4 6 L O.O.O.O.( p t p t t p c / o.O.O.O.X.T i 5 4 2 2 < < > ; ; ; & * * * * * +.+.+.+.",
"+.+.+.+.% * * * * * * * * ; ; ; ; < < < 1 1 q ( O.O.O.o.L t t t t t t q j ) O.O.O.O.X.m 5 4 4 2 < < < > ; ; ; * * * * * +.+.+.+.",
"+.+.+.+.* * * * * * * * * * & ; ; > < 3 , < k | O.O.O.X.B t t t t e e q e G o.O.O.O.O.Y 7 4 4 2 2 < > > ; ; ; * * * * % +.+.+.+.",
"+.+.+.+.* * * * * * * * * * ; ; ; > y J Z M Q ..O.O.O.[ j e t t q q q q 7 S o.O.O.O.O.T 7 2 2 2 2 < < < < ; ; ; * * * = +.+.+.+.",
"+.+.+.+.@ * * * * * * * * * * * & : A X.o.o.O.O.O.O.O.) i 7 q q q q 7 7 q R O.O.O.O.o.Y 5 , < < < < < < ; > ; ; * * * O +.+.+.+.",
"+.+.+.+.+.* * * * * * * * * * * & 8 _ O.O.O.O.O.O.O.O.{ H x j i q 7 0 i A | O.O.O.O.o.S 2 , < < < ; ; ; ; ; ; & & * * +.+.+.+.+.",
"+.+.+.+.+.& * * * * * * % * * * ; 9 K ^ | o.o.O.O.O.O.O.o.| ] ! Y U Y ` o.O.O.O.O.O.[ a < < ; < ; ; ; ; ; & * * * * & +.+.+.+.+.",
"+.+.+.+.+.@ * * * * * * * * * * & ; , 6 u m R ] O.O.O.O.O.O.O.O.O.O.O.O.O.O.O.O.O.o.H 4 > < > ; ; ; ; ; & * * * * * @ +.+.+.+.+.",
"+.+.+.+.+.+.* * * * * * * * * * & ; ; ; ; > 2 B ..O. .{ | O.O.O.O.O.O.O.O.O.O.O.o.! w > ; > ; ; ; ; ; ; & & * * * * +.+.+.+.+.+.",
"+.+.+.+.+.+.* * * * * * * * * * & ; ; ; > > < Z ..o.P a M ) O.O.o.X.X.O.O.o.X.{ U w > ; ; ; ; ; ; ; ; & & & * * * = +.+.+.+.+.+.",
"+.+.+.+.+.+.o * * * * * * * * * * & ; ; ; > 3 T O.| z 4 0 / O.| F M Z H K P m h 3 ; ; ; ; ; ; * * * * * * * * * & o +.+.+.+.+.+.",
"+.+.+.+.+.+.+.= * * * * * * * * * * & ; ; ; w ] O.` i , a [ O.` w < < < < > > ; ; ; ; ; & ; * * * * * * * * * * % +.+.+.+.+.+.+.",
"+.+.+.+.+.+.+.  * * * * * * * * * * ; & ; ; f ' o.T 7 1 z | O.Y 4 < > < > > ; ; ; ; ; & & ; * * * * * * * * * &   +.+.+.+.+.+.+.",
"+.+.+.+.+.+.+.+.% * * * * * * * * * & & & - 0 n U n , 3 A X.X.Z < > ; > ; ; ; ; ; & * * & ; * * * * * * * * * @ +.+.+.+.+.+.+.+.",
"+.+.+.+.+.+.+.+.+.& * * * * * * * * * * * & ; ; 2 4 < 3 C _ ` g ; > ; ; & * * * * * * * * * * * * * * * * * * +.+.+.+.+.+.+.+.+.",
"+.+.+.+.+.+.+.+.+.+.* * * * * * * * * * & ; ; ; > < < < 2 q u 3 > ; ; ; ; * * * * * * * * * * * * * * * * * +.+.+.+.+.+.+.+.+.+.",
"+.+.+.+.+.+.+.+.+.+.o * * * * * * * * * & ; ; ; ; < < > < ; ; ; ; ; * ; & & * * * * * * * * * * * * * * * o +.+.+.+.+.+.+.+.+.+.",
"+.+.+.+.+.+.+.+.+.+.+.O * * * * * * * * ; ; ; ; > ; > > ; > ; ; ; ; ; * * ; * * * * * * * * * * * * * * o +.+.+.+.+.+.+.+.+.+.+.",
"+.+.+.+.+.+.+.+.+.+.+.+.O * * * * * * * * & & ; ; ; > ; ; ; ; & ; * * * * * * * * * * * * * * * * * * o +.+.+.+.+.+.+.+.+.+.+.+.",
"+.+.+.+.+.+.+.+.+.+.+.+.+.o * * * * * * * * ; & ; > ; ; & ; ; & * * * * % * * * * * * * * * * * * * o +.+.+.+.+.+.+.+.+.+.+.+.+.",
"+.+.+.+.+.+.+.+.+.+.+.+.+.+.+.* * * * * * * * & & ; ; ; ; * * * * * * * * * * * * * * * * * * * % +.+.+.+.+.+.+.+.+.+.+.+.+.+.+.",
"+.+.+.+.+.+.+.+.+.+.+.+.+.+.+.+.@ * * * * * * * ; & ; * * * * * * * * * * * * * * * * * * * & @ +.+.+.+.+.+.+.+.+.+.+.+.+.+.+.+.",
"+.+.+.+.+.+.+.+.+.+.+.+.+.+.+.+.+.  = * * * & * * * * * * * * * * * * * * * * * * * * * * %   +.+.+.+.+.+.+.+.+.+.+.+.+.+.+.+.+.",
"+.+.+.+.+.+.+.+.+.+.+.+.+.+.+.+.+.+.+.o % * * & * * * * * * * * * * * * * * * * * * * %   +.+.+.+.+.+.+.+.+.+.+.+.+.+.+.+.+.+.+.",
"+.+.+.+.+.+.+.+.+.+.+.+.+.+.+.+.+.+.+.+.+.+.@ & & * * * * * * * * * * * * * * * & O +.+.+.+.+.+.+.+.+.+.+.+.+.+.+.+.+.+.+.+.+.+.",
"+.+.+.+.+.+.+.+.+.+.+.+.+.+.+.+.+.+.+.+.+.+.+.+.+.O @ % * * & * * * * * * @ O +.+.+.+.+.+.+.+.+.+.+.+.+.+.+.+.+.+.+.+.+.+.+.+.+.",
"+.+.+.+.+.+.+.+.+.+.+.+.+.+.+.+.+.+.+.+.+.+.+.+.+.+.+.+.+.+.+.+.+.+.+.+.+.+.+.+.+.+.+.+.+.+.+.+.+.+.+.+.+.+.+.+.+.+.+.+.+.+.+.+.",
"+.+.+.+.+.+.+.+.+.+.+.+.+.+.+.+.+.+.+.+.+.+.+.+.+.+.+.+.+.+.+.+.+.+.+.+.+.+.+.+.+.+.+.+.+.+.+.+.+.+.+.+.+.+.+.+.+.+.+.+.+.+.+.+.",
"+.+.+.+.+.+.+.+.+.+.+.+.+.+.+.+.+.+.+.+.+.+.+.+.+.+.+.+.+.+.+.+.+.+.+.+.+.+.+.+.+.+.+.+.+.+.+.+.+.+.+.+.+.+.+.+.+.+.+.+.+.+.+.+.",
"+.+.+.+.+.+.+.+.+.+.+.+.+.+.+.+.+.+.+.+.+.+.+.+.+.+.+.+.+.+.+.+.+.+.+.+.+.+.+.+.+.+.+.+.+.+.+.+.+.+.+.+.+.+.+.+.+.+.+.+.+.+.+.+."
};
