/* XPM */
static char *bubcoin64[] = {
/* columns rows colors chars-per-pixel */
"64 64 121 2 ",
"   c #4664FF",
".  c #4A67FF",
"X  c #4769FF",
"o  c #4A6BFF",
"O  c #4776FF",
"+  c #4A73FF",
"@  c #477DFF",
"#  c #4A7BFF",
"$  c #5B7CFF",
"%  c #4783FF",
"&  c #4A84FF",
"*  c #478BFF",
"=  c #4A8BFF",
"-  c #5483FF",
";  c #5C84FF",
":  c #518CFF",
">  c #5A8AFF",
",  c #4794FF",
"<  c #4A93FF",
"1  c #479DFF",
"2  c #4A9CFF",
"3  c #5395FF",
"4  c #5994FF",
"5  c #569DFF",
"6  c #6786FF",
"7  c #688FFF",
"8  c #6493FF",
"9  c #6C95FF",
"0  c #649BFF",
"q  c #7394FF",
"w  c #749CFF",
"e  c #7D9EFF",
"r  c #47A1FF",
"t  c #4AA4FF",
"y  c #47ACFF",
"u  c #4AACFF",
"i  c #54A5FF",
"p  c #5CA3FF",
"a  c #54ACFF",
"s  c #59AAFF",
"d  c #47B1FF",
"f  c #4AB3FF",
"g  c #4ABBFF",
"h  c #55B4FF",
"j  c #5EB2FF",
"k  c #55B9FF",
"l  c #64A0FF",
"z  c #68A2FF",
"x  c #63AFFF",
"c  c #6BAFFF",
"v  c #70A3FF",
"b  c #70ABFF",
"n  c #78A9FF",
"m  c #64B5FF",
"M  c #6EB3FF",
"N  c #69B9FF",
"B  c #74B7FF",
"V  c #7DB0FF",
"C  c #73BAFF",
"Z  c #7DBAFF",
"A  c #4AC1FF",
"S  c #5FC0FF",
"D  c #67C2FF",
"F  c #7EC3FF",
"G  c #74C9FF",
"H  c #8498FF",
"J  c #86A2FF",
"K  c #84ACFF",
"L  c #8BAEFF",
"P  c #91AEFF",
"I  c #9BABFF",
"U  c #86B4FF",
"Y  c #8FB6FF",
"T  c #82BCFF",
"R  c #9AB4FF",
"E  c #93BBFF",
"W  c #99BAFF",
"Q  c #A3B4FF",
"!  c #A8B6FF",
"~  c #A3BBFF",
"^  c #85C5FF",
"/  c #8CC2FF",
"(  c #82C8FF",
")  c #8FC9FF",
"_  c #93C3FF",
"`  c #9BCCFF",
"'  c #93D1FF",
"]  c #A6C2FF",
"[  c #AAC6FF",
"{  c #A6C9FF",
"}  c #ACCAFF",
"|  c #B2C6FF",
" . c #B4CBFF",
".. c #B9CBFF",
"X. c #A1D2FF",
"o. c #ABD4FF",
"O. c #B6D6FF",
"+. c #BCD3FF",
"@. c #BCDBFF",
"#. c #B7E3FF",
"$. c #C3CDFF",
"%. c #C1D4FF",
"&. c #C4DBFF",
"*. c #CBD9FF",
"=. c #D0DEFF",
"-. c #CDE2FF",
";. c #CDEAFF",
":. c #D4E4FF",
">. c #DBE3FF",
",. c #D3EAFF",
"<. c #DBECFF",
"1. c #DDF0FF",
"2. c #E2E7FF",
"3. c #E0EBFF",
"4. c #E8EDFF",
"5. c #E4F2FF",
"6. c #EDF4FF",
"7. c #F2F6FF",
"8. c #F5F9FF",
"9. c #FFFFFF",
"0. c None",
/* pixels */
"0.0.0.0.0.0.0.0.0.0.0.0.0.0.0.0.0.0.0.0.0.0.0.0.0.0.t t 1 t t t u u u u u u 0.0.0.0.0.0.0.0.0.0.0.0.0.0.0.0.0.0.0.0.0.0.0.0.0.0.",
"0.0.0.0.0.0.0.0.0.0.0.0.0.0.0.0.0.0.0.0.0.0.2 2 2 2 2 t t t t u u t u u u f u f f f 0.0.0.0.0.0.0.0.0.0.0.0.0.0.0.0.0.0.0.0.0.0.",
"0.0.0.0.0.0.0.0.0.0.0.0.0.0.0.0.0.0.0.0.2 < 2 2 2 2 2 t t t t t t u u u u u f f f f f f 0.0.0.0.0.0.0.0.0.0.0.0.0.0.0.0.0.0.0.0.",
"0.0.0.0.0.0.0.0.0.0.0.0.0.0.0.0.0.< < < < 2 2 2 2 2 t 2 t t t t t u t u u u f u f f f f f g f 0.0.0.0.0.0.0.0.0.0.0.0.0.0.0.0.0.",
"0.0.0.0.0.0.0.0.0.0.0.0.0.0.0.0.< < < < < < 2 < 2 2 2 t t t t t t u u u u u f u f f f f g f g g 0.0.0.0.0.0.0.0.0.0.0.0.0.0.0.0.",
"0.0.0.0.0.0.0.0.0.0.0.0.0.0.= = = < = < < 2 < 2 2 2 2 t t 2 t i t t t t u u u f f f f f f g f f g g 0.0.0.0.0.0.0.0.0.0.0.0.0.0.",
"0.0.0.0.0.0.0.0.0.0.0.0.0.= = < < < < < < 2 2 2 2 2 2 2 2 t t t t u u u u u u f f u f f f g g g g g g 0.0.0.0.0.0.0.0.0.0.0.0.0.",
"0.0.0.0.0.0.0.0.0.0.0.& = = = = = = < < < < < < 2 2 2 2 2 t 2 t t t t t u u u u u f f f f f f g g g g g A 0.0.0.0.0.0.0.0.0.0.0.",
"0.0.0.0.0.0.0.0.0.0.= & = = = = = < = < < < < 2 2 < 2 2 2 2 1 t t t t u t u u u u f u f f f g g g g g g A g 0.0.0.0.0.0.0.0.0.0.",
"0.0.0.0.0.0.0.0.0.& & & & = = = = < < < < < < 2 < 2 2 2 t 2 t t t t t t u u u u u f f f f f f f g g g g g A g 0.0.0.0.0.0.0.0.0.",
"0.0.0.0.0.0.0.0.& & & & = & = = = = = < = < < < 2 2 2 2 2 2 1 1 r t t u y t y y u u u f f f f g f g g g g A A A 0.0.0.0.0.0.0.0.",
"0.0.0.0.0.0.0.# & @ & & & = & = = = < = < < < < < < 2 2 2 1 Z o.T x i t t t u y u u u f f f f f f g g g g A g A A 0.0.0.0.0.0.0.",
"0.0.0.0.0.0.0.& & & & & & = = = = = = < = < < < 2 2 2 < 2 2 +.9.9.<.x r u m a y u u u f f f f f f g g g g g A A A 0.0.0.0.0.0.0.",
"0.0.0.0.0.0.# # # # & & & & = & = = = = < < < < < < 2 2 2 i <.9.9.,.a r C 3.;.o.N u f u f u f f g f f g g g A A A A 0.0.0.0.0.0.",
"0.0.0.0.0.# # & # & & & & = & = = = = < = < < * < < < 2 2 c 8.9.9.O.t r ` 9.9.9.^ y u f u f f f f g g f g g g A A A A 0.0.0.0.0.",
"0.0.0.0.0.# # # # # # & & & & & = = = = = 3 } _ b 5 < < , / 9.9.9./ 1 t @.9.9.6.N u u u f u f f f f f g g g g g A A A 0.0.0.0.0.",
"0.0.0.0.# + # # # & # & & & = & = = = = = v 8.9.8.<.+._ b @.9.9.6.M 1 s <.9.9.,.a u u u u f f f f f g g g g g g g A A A 0.0.0.0.",
"0.0.0.# + # # # # & & # & & & & = & = = = E 9.9.9.9.9.9.8.8.9.9.5.b t B 8.9.9.o.t u u u u u u f f f f f g g g g g A A A A 0.0.0.",
"0.0.0.+ + # # # # # # & & & & & & = = = = O.9.9.9.9.9.9.9.9.9.9.9.6.,.,.9.9.9.^ r y y u u f u f f f f g g f g g g A A A A 0.0.0.",
"0.0.0.+ + + + # # # # & # & & & & = & = = 0 U } 3.9.9.9.9.9.9.9.9.9.9.9.9.9.8.X.m t y u u u f u f f f f f g g g g A g A A 0.0.0.",
"0.0.+ + # + # # # # # # # & & & & & & = = * * = l <.9.9.9.9.9.9.9.9.9.9.9.9.9.9.5.o.m y u u u f f f f f f g g g g A g A A A 0.0.",
"0.0.+ + + + + # # # # # & # & & & & = = = = = = = O.9.9.9.9.9.8.6.9.9.9.9.9.9.9.9.9.5.) a u f u u f f f f f f g g g g A A A 0.0.",
"0.+ + + + # + # # # # & # & & & & = & = = = = < 3 -.9.9.9.9.9.&.z T o.<.8.9.9.9.9.9.9.9.X.f u u f f f f f f g g g g A A A A A 0.",
"0.o o + + + + + + # # # # # # & & & & = & = = * 0 6.9.9.9.9.9.W & < 1 a ( ;.9.9.9.9.9.9.8.^ y f u f f f f g f g g g g A A A A 0.",
"0.o + + + + + + # # # # & # & & & & & & = = = = K 9.9.9.9.9.8.w & < 2 t y k #.9.9.9.9.9.9.,.a y u f u f f g f g g g g g g A A 0.",
"0.o o + + + + + + # # # # # # & & & & = & = = = } 9.9.9.9.9.2.; @ = < 1 t u D 5.9.9.9.9.9.6.N y u u f f f f f f f g g g g A A 0.",
"o o o + o + + + + # + # # # & # & & & & = & = = -.9.9.9.9.9.$.+ # & = < t u f ;.9.9.9.9.9.8.C y u f u f f f f g g g g g g A A g ",
"o o o o + + + + + + # # # # # & @ & & & & = & 0 6.9.9.9.9.9.I . + @ = < 2 t h ,.9.9.9.9.9.8.N y u u f u f f f f f g g g g g A A ",
"o o o o + + + + + # # # # # @ # & & & & & & % U 9.9.9.9.9.8.H . X O % * , 1 ) 8.9.9.9.9.9.<.s y u u f u f f f f f g g g g g A g ",
"o o o o + o + + + + + # + # # - # @ & & & & & [ 9.9.9.9.9.9.4.%.Q J w w V o.7.9.9.9.9.9.9.o.y u u u u f f f f f f f g f g A g A ",
"o o o o o o + o + + # # # # # # & & & & & = : =.9.9.9.9.9.9.9.9.9.9.8.8.9.9.9.9.9.9.9.9.<.m t u u u u u f u f f f g g g g g A g ",
"o o o o o + + + + + + + + # # # # # # & & & 0 6.9.9.9.9.9.9.9.9.9.9.9.9.9.9.9.9.9.9.9.<.C t t u y u u u u f f f f f f g g g A g ",
". o o o o o + + + + + # # + + # # & & # & % K 9.9.9.9.9.8.+.&.6.8.9.9.9.9.9.9.9.9.7.` s t t y t y u u u u f f f f f g g f g g g ",
". . . o + o o o + + + + + # # # # # # & @ % [ 9.9.9.9.9.3.4 < p Z o.1.9.9.9.9.9.9.9.-.M t t t t u u u u f u u f f f f f g g g g ",
". . . o . o o + + + + + + # # # # # @ & & - =.9.9.9.9.9.%.& = < 1 t j ' 5.9.9.9.9.9.9.5.M t t t t u t u u f u f f f f g f g g g ",
". . . o o o + o + o + + + # # # # # @ @ & 8 4.9.9.9.9.9.R @ = = 2 1 y u D ,.9.9.9.9.9.9.-.u t t u t u u u u u f f f f f g f g g ",
". . . . o o o o o + + + + # # + # # @ # @ K 9.9.9.9.9.8.q # & = < 2 t u d G 8.9.9.9.9.9.8.B t t t t u u u u u f f f f f f g f g ",
". . . o o o o + + o + + + + + # # w 8 - &  .9.9.9.9.9.2.$ + @ & = < 2 t u k ,.9.9.9.9.9.9._ t t t u u t u u u f f f f f f g f g ",
"0.. . . . o o o + o o + + + + O 7 4.7.=.*.8.9.9.9.9.9.$.o + # # = < 2 t y h 1.9.9.9.9.9.9._ 1 t t t u u t u u u u f f f f g g 0.",
"0.. . . . . o o o + o + + + # + ~ 9.9.9.9.9.9.9.9.9.9.I   . + # & = < 1 r F 8.9.9.9.9.9.9.T 1 t t t t u u u u u u f f f f f f 0.",
"0.. . . . o o o o o + + + + + ; 2.9.9.9.9.9.9.9.9.9.9.>.! H 6 - - & < 5 T 3.9.9.9.9.9.9.6.x t t t t u t u u u u u f f f f f f 0.",
"0.. . . . . . o o + + o + + + q >.8.9.9.9.9.9.9.9.9.9.9.9.8.6.>.*.%.*.<.8.9.9.9.9.9.9.9.&.t 1 t t i t u t t u u u u u f f f f 0.",
"0.0.. . . . . o o o + o o + + + $ 9 P ..>.8.9.9.9.9.9.9.9.9.9.9.9.9.9.9.9.9.9.9.9.9.9.8.Z 1 2 t t t t t t u u u u u f f f f 0.0.",
"0.0.. . . . . . . o o + + + + + O O O + - 9 +.9.9.9.9.9.9.9.9.9.9.9.9.9.9.9.9.9.9.9.9.O.5 2 t 2 1 t t t t u u u u f u f f f 0.0.",
"0.0.0.. . . o . o o o o o + + + + + + # # # ..9.9.7.} &.4.9.9.9.9.9.9.9.9.9.9.9.9.9.@.p 2 1 2 t 2 t t t u t u u u u u u f 0.0.0.",
"0.0.0.. . . . . . o o + + o + + + + # # # - >.9.9.>.- & L 8.9.9.6.6.8.9.9.9.9.8.>._ 5 2 2 2 2 t t t t t t t t u u u f f u 0.0.0.",
"0.0.0.. . . . . o o o o o + + + + # # + + 9 7.9.9. .& @ E 9.9.9.Y 0 n U E E U c 5 , 2 < 2 2 2 2 2 t 2 t t u t u u u f u u 0.0.0.",
"0.0.0.0.. . . . . . o o o o o + + + + + O P 9.9.9.L @ & +.9.9.6.0 = = * * * , * < < < 2 < 1 2 2 2 2 t t t t t t u u u u 0.0.0.0.",
"0.0.0.0.0.. . . . o o o o + + o + + + # + ..9.9.7.9 @ > >.9.9.=.> = = = = = < = < < < < < 2 2 2 2 t 2 t t t t u u u u 0.0.0.0.0.",
"0.0.0.0.0.. . . . . o o o o o + o + + + @ H | =.*.- % w 8.9.9.} & & = = = < = < < < < 2 2 2 2 2 t 2 2 t t t t t u t u 0.0.0.0.0.",
"0.0.0.0.0.0.. . . . o . o o + o + + + + + + # - > @ @ K 6.9.9.L % = = = = < < < < < < < < 2 2 2 2 2 t 2 t t t t t u 0.0.0.0.0.0.",
"0.0.0.0.0.0.0.. . . . o o o o + + + + + # + # # # # @ - 0 L ] 8 & = = = = = = = < < < 2 < < < 2 2 2 2 t t t t t t 0.0.0.0.0.0.0.",
"0.0.0.0.0.0.0.. . . . o . o o + + + + + + + + # # # # # & @ @ & & & = = = = = < = < < < < 2 2 2 2 t 2 t t t t t t 0.0.0.0.0.0.0.",
"0.0.0.0.0.0.0.0.. . . . o o o o o + o + + # + # + # # # @ & & & & = = & = = = = < < < < < 2 < 2 2 2 2 2 t 2 t t 0.0.0.0.0.0.0.0.",
"0.0.0.0.0.0.0.0.0.. . . o o o o + o + + + + # + # # # # # & & & & = & = = = = < = < = < < < < 2 2 2 2 t 2 t 2 0.0.0.0.0.0.0.0.0.",
"0.0.0.0.0.0.0.0.0.0.. . . o o o o o + + + + + # # # # # & # # & & & & & = = = = = = < < < < 2 < < 2 2 2 2 t 0.0.0.0.0.0.0.0.0.0.",
"0.0.0.0.0.0.0.0.0.0.0.. . . o o o o + + + + + + # + + # # & & & & & & = & & = = = < < < < < < 2 < 2 5 2 2 0.0.0.0.0.0.0.0.0.0.0.",
"0.0.0.0.0.0.0.0.0.0.0.0.0.. o o o + + o + + + + + # # # # # # # & & & & = = = = = = = < < < < 2 2 2 1 0.0.0.0.0.0.0.0.0.0.0.0.0.",
"0.0.0.0.0.0.0.0.0.0.0.0.0.0.o o o o o + o + + + + # # # # # # & @ & & & = & = = = < < = < < < < < 2 0.0.0.0.0.0.0.0.0.0.0.0.0.0.",
"0.0.0.0.0.0.0.0.0.0.0.0.0.0.0.0.o o o o + + + + # + # # # # & # & & & & & = & = = = = < = < < < 0.0.0.0.0.0.0.0.0.0.0.0.0.0.0.0.",
"0.0.0.0.0.0.0.0.0.0.0.0.0.0.0.0.0.o o + o + + + + # + # # # # & & # & & & & = = = = = = = < < 0.0.0.0.0.0.0.0.0.0.0.0.0.0.0.0.0.",
"0.0.0.0.0.0.0.0.0.0.0.0.0.0.0.0.0.0.0.0.o + o + + + + # + # # # # & # & & = = & = = = < 0.0.0.0.0.0.0.0.0.0.0.0.0.0.0.0.0.0.0.0.",
"0.0.0.0.0.0.0.0.0.0.0.0.0.0.0.0.0.0.0.0.0.0.+ + + # + # # # # # & # & & & & & = = = 0.0.0.0.0.0.0.0.0.0.0.0.0.0.0.0.0.0.0.0.0.0.",
"0.0.0.0.0.0.0.0.0.0.0.0.0.0.0.0.0.0.0.0.0.0.0.0.0.0.+ + # # # # # & & & & & 0.0.0.0.0.0.0.0.0.0.0.0.0.0.0.0.0.0.0.0.0.0.0.0.0.0."
};
