/* XPM */
static char *bubcoin32[] = {
/* columns rows colors chars-per-pixel */
"32 32 98 2 ",
"   c #4A67FF",
".  c #4A6BFF",
"X  c #4675FF",
"o  c #4A73FF",
"O  c #467AFF",
"+  c #4A7BFF",
"@  c #5374FF",
"#  c #4784FF",
"$  c #4A84FF",
"%  c #478AFF",
"&  c #4A8CFF",
"*  c #5383FF",
"=  c #5C85FF",
"-  c #538EFF",
";  c #5C8CFF",
":  c #4A94FF",
">  c #4698FF",
",  c #4A9CFF",
"<  c #5294FF",
"1  c #5C96FF",
"2  c #549AFF",
"3  c #6288FF",
"4  c #6291FF",
"5  c #6F95FF",
"6  c #689AFF",
"7  c #7596FF",
"8  c #45A1FF",
"9  c #4AA4FF",
"0  c #47A9FF",
"q  c #4AACFF",
"w  c #55A5FF",
"e  c #54AEFF",
"r  c #59ADFF",
"t  c #4AB3FF",
"y  c #4ABBFF",
"u  c #54B1FF",
"i  c #5DB5FF",
"p  c #62A3FF",
"a  c #6DA4FF",
"s  c #62AAFF",
"d  c #6DAEFF",
"f  c #70A6FF",
"g  c #7CA3FF",
"h  c #76ABFF",
"j  c #7BAAFF",
"k  c #66B7FF",
"l  c #6AB2FF",
"z  c #62BDFF",
"x  c #69BAFF",
"c  c #73B3FF",
"v  c #7AB4FF",
"b  c #7BBCFF",
"n  c #4AC1FF",
"m  c #7EC0FF",
"M  c #8099FF",
"N  c #81A7FF",
"B  c #8EB2FF",
"V  c #93B5FF",
"C  c #99B6FF",
"Z  c #95BFFF",
"A  c #9CBDFF",
"S  c #A8B6FF",
"D  c #A4BBFF",
"F  c #84C2FF",
"G  c #8EC5FF",
"H  c #8BC8FF",
"J  c #97C1FF",
"K  c #9BC1FF",
"L  c #9BCBFF",
"P  c #96D1FF",
"I  c #9BD1FF",
"U  c #A9C0FF",
"Y  c #B5C9FF",
"T  c #B0D5FF",
"R  c #BED5FF",
"E  c #BCDCFF",
"W  c #BCE4FF",
"Q  c #C4CEFF",
"!  c #C4D7FF",
"~  c #C5DAFF",
"^  c #CADBFF",
"/  c #D3DAFF",
"(  c #C4E4FF",
")  c #CAE2FF",
"_  c #CCE9FF",
"`  c #D3E4FF",
"'  c #D9E3FF",
"]  c #D6EBFF",
"[  c #DBECFF",
"{  c #E5EDFF",
"}  c #EBEFFF",
"|  c #E3F1FF",
" . c #ECF4FF",
".. c #EEF8FF",
"X. c #F2F6FF",
"o. c #F4F9FF",
"O. c #FEFEFF",
"+. c None",
/* pixels */
"+.+.+.+.+.+.+.+.+.+.+.+., 9 9 9 q q q t +.+.+.+.+.+.+.+.+.+.+.+.",
"+.+.+.+.+.+.+.+.+.: : , : 9 9 9 9 q q t t t t +.+.+.+.+.+.+.+.+.",
"+.+.+.+.+.+.+.& : : : , , 9 9 9 9 q q q t t t y y +.+.+.+.+.+.+.",
"+.+.+.+.+.+.& & & : : , , , , 9 9 q q q t t t y y y +.+.+.+.+.+.",
"+.+.+.+.+.$ & & : & : : , , , , 9 9 0 q q t t t y y n +.+.+.+.+.",
"+.+.+.+.$ $ $ & & & : : , , , c l w 0 0 q t t t y y y y +.+.+.+.",
"+.+.+.+ $ $ $ & & & : : : > w [ [ r m H u q t t t y y n n +.+.+.",
"+.+.+ + + $ $ $ & & < h p : d o.( w _ X.x 0 t t t y y n n n +.+.",
"+.+.+ + + $ $ $ & & a X. .) ) O.T l  .] r q q t t t y y y n +.+.",
"+.o o + + $ $ $ $ & a ~ X.O.O.O.o.| O.( r 0 q t t y y y y n n +.",
"+.o o + + + + $ $ $ & & K O.O.O.X.O.O.O.[ H t q t t t y y n n +.",
"+.o o o + + + $ $ & $ & K O.O.` f G _ O.O.o.I q q t t y y y n +.",
". o o o + + + $ $ & & & ~ O.O.D # > u W O.O.| i q t t t y y y n ",
". . o o o + + $ $ $ $ 1 { O.O.M O & 8 P O.O...k q t t t y y y n ",
". . o o o + + + + $ # g o.O.o.S 7 6 v ] O.O.] r q t t t t y y n ",
". . . o o o + + $ $ # A O.O.O.O.O.X.o.O.O. .F 0 0 q t t t y y y ",
"  . . . o o o + + $ $ ! O.O.R J ( ..O.O.O.L 9 9 0 q q t t y y y ",
"  . . o o o o + + + ; { O.O.N % , x ( O.O. .b 9 0 q q t t t t y ",
"    . . o o o + = ; N o.O.} 3 # > 8 z ..O.O.E 9 9 q q q t t y t ",
"      . . o o + Y {  .O.O./ @ X # > k ..O.O.E 9 9 q q q q t t y ",
"+.    . . o o = ' O.O.O.O.X.Q S B J ` O.O.O.L 8 9 9 9 q t t t +.",
"+.      . . o o 3 7 D  .O.O.O.O.O.O.O.O.O.[ s 8 9 9 q q q t t +.",
"+.      . . o o o X * '  .V ' O. .X.o.X.` c , , 9 9 q q q t q +.",
"+.+.    . . . o o o 7 o.! - ^ X.j a j a 2 , : , , 9 9 9 q q +.+.",
"+.+.      . . o o o 7 ' C 3  .' - % & & : : , , , 9 9 9 q e +.+.",
"+.+.+.    . . . . o + * * ; Y A & & & : : : : , , , 9 9 9 +.+.+.",
"+.+.+.+.    . . o o o o + + $ $ $ & & & : : : , , , 9 9 +.+.+.+.",
"+.+.+.+.+.  . . o o o + + + + $ $ $ & & & & : : : 9 9 +.+.+.+.+.",
"+.+.+.+.+.+.  . . o o o + + + $ $ $ & & & : : : , , +.+.+.+.+.+.",
"+.+.+.+.+.+.+.. . o . o o + + + $ $ $ & & : : : : +.+.+.+.+.+.+.",
"+.+.+.+.+.+.+.+.+.. o o o + + + $ $ $ & & & : +.+.+.+.+.+.+.+.+.",
"+.+.+.+.+.+.+.+.+.+.+.+.o o + + + $ $ $ +.+.+.+.+.+.+.+.+.+.+.+."
};
