<svg width="904" height="906" viewBox="0 0 904 906" fill="none" xmlns="http://www.w3.org/2000/svg">
<path d="M0 451.975C0 202.384 202.334 0 451.925 0C701.516 0 903.85 202.384 903.85 451.975C903.85 701.566 701.516 903.95 451.925 903.95C202.334 903.95 0 701.566 0 451.975Z" fill="#4A67FF"/>
<path d="M0 451.975C0 202.384 202.334 0 451.925 0C701.516 0 903.85 202.384 903.85 451.975C903.85 701.566 701.516 903.95 451.925 903.95C202.334 903.95 0 701.566 0 451.975Z" fill="url(#paint0_linear)"/>
<path d="M450.234 805.338C645.248 805.338 803.338 647.248 803.338 452.234C803.338 257.221 645.248 99.131 450.234 99.131C255.221 99.131 97.1309 257.221 97.1309 452.234C97.1309 647.248 255.221 805.338 450.234 805.338Z" fill="white"/>
<path d="M561.234 15.5444C319.146 -44.8222 73.909 102.549 13.5706 344.707C-46.8242 586.823 100.533 832.075 342.592 892.441C584.751 952.82 829.986 805.463 890.355 563.335C950.721 321.191 803.378 75.9109 561.234 15.5444ZM651.162 389.608C644.651 433.633 620.245 454.946 587.844 462.418C632.335 485.582 654.976 521.102 633.41 582.685C606.645 659.165 543.058 665.622 458.497 649.619L437.974 731.864L388.385 719.506L408.639 638.362C395.787 635.169 382.65 631.779 369.119 628.106L348.795 709.633L299.261 697.274L319.784 614.872C308.2 611.906 296.435 608.756 284.431 605.748L219.898 589.662L244.514 532.897C244.514 532.897 281.054 542.615 280.559 541.894C294.599 545.371 300.827 536.217 303.285 530.115L335.714 400.102L335.799 399.749L358.934 306.939C359.541 296.403 355.911 283.112 335.827 278.098C336.602 277.575 299.81 269.143 299.81 269.143L313.002 216.178L381.391 233.256L381.335 233.51C391.617 236.066 402.21 238.496 413.003 240.953L433.326 159.512L482.887 171.87L462.972 251.714C476.277 254.753 489.667 257.816 502.704 261.066L522.477 181.743L572.067 194.102L551.757 275.572C614.369 297.137 660.161 329.467 651.162 389.608Z" fill="#4A67FF"/>
<path d="M561.234 15.5444C319.146 -44.8222 73.909 102.549 13.5706 344.707C-46.8242 586.823 100.533 832.075 342.592 892.441C584.751 952.82 829.986 805.463 890.355 563.335C950.721 321.191 803.378 75.9109 561.234 15.5444ZM651.162 389.608C644.651 433.633 620.245 454.946 587.844 462.418C632.335 485.582 654.976 521.102 633.41 582.685C606.645 659.165 543.058 665.622 458.497 649.619L437.974 731.864L388.385 719.506L408.639 638.362C395.787 635.169 382.65 631.779 369.119 628.106L348.795 709.633L299.261 697.274L319.784 614.872C308.2 611.906 296.435 608.756 284.431 605.748L219.898 589.662L244.514 532.897C244.514 532.897 281.054 542.615 280.559 541.894C294.599 545.371 300.827 536.217 303.285 530.115L335.714 400.102L335.799 399.749L358.934 306.939C359.541 296.403 355.911 283.112 335.827 278.098C336.602 277.575 299.81 269.143 299.81 269.143L313.002 216.178L381.391 233.256L381.335 233.51C391.617 236.066 402.21 238.496 413.003 240.953L433.326 159.512L482.887 171.87L462.972 251.714C476.277 254.753 489.667 257.816 502.704 261.066L522.477 181.743L572.067 194.102L551.757 275.572C614.369 297.137 660.161 329.467 651.162 389.608Z" fill="url(#paint1_linear)"/>
<path d="M449.611 310.287L424.924 409.297C452.916 416.273 539.215 444.733 553.199 388.718C567.761 330.287 477.605 317.264 449.611 310.287Z" fill="#4A67FF"/>
<path d="M449.611 310.287L424.924 409.297C452.916 416.273 539.215 444.733 553.199 388.718C567.761 330.287 477.605 317.264 449.611 310.287Z" fill="url(#paint2_linear)"/>
<path d="M412.467 459.268L385.233 568.434C418.849 576.783 522.536 610.072 537.859 548.49C553.876 484.268 446.08 467.658 412.467 459.268Z" fill="#4A67FF"/>
<path d="M412.467 459.268L385.233 568.434C418.849 576.783 522.536 610.072 537.859 548.49C553.876 484.268 446.08 467.658 412.467 459.268Z" fill="url(#paint3_linear)"/>
<defs>
<linearGradient id="paint0_linear" x1="903.85" y1="-2.69398e-05" x2="-0.0400098" y2="451.895" gradientUnits="userSpaceOnUse">
<stop stop-color="#4AD4FF"/>
<stop offset="1" stop-color="#4AD4FF" stop-opacity="0"/>
</linearGradient>
<linearGradient id="paint1_linear" x1="903.882" y1="2.01914" x2="-0.00868607" y2="453.912" gradientUnits="userSpaceOnUse">
<stop stop-color="#4AD4FF"/>
<stop offset="1" stop-color="#4AD4FF" stop-opacity="0"/>
</linearGradient>
<linearGradient id="paint2_linear" x1="554.779" y1="310.287" x2="433.054" y2="380.582" gradientUnits="userSpaceOnUse">
<stop stop-color="#4AD4FF"/>
<stop offset="1" stop-color="#4AD4FF" stop-opacity="0"/>
</linearGradient>
<linearGradient id="paint3_linear" x1="539.471" y1="459.268" x2="399.431" y2="545.223" gradientUnits="userSpaceOnUse">
<stop stop-color="#4AD4FF"/>
<stop offset="1" stop-color="#4AD4FF" stop-opacity="0"/>
</linearGradient>
</defs>
</svg>
